# xmcd
#
# Track frame offsets:
# 165
# 15477
# 32830
# 46431
# 68439
# 80089
# 99012
# 116287
# 133801
# 150444
# 167776
# 185930
# 200462
# 213813
# 224247
# 246299
#
# Disc length: 3544 seconds
#
#
# Revision: 0
# Processed by: cddbd v1.4PL0 Copyright (c) Steve Scherf et al.
# Submitted via: FreeRIP 2.35 
#
DISCID=de0dd610
DTITLE=Outbound - The roors run deep
DYEAR=1900
DGENRE=Gospel
TTITLE0=Th e ots run deep
TTITLE1=If tomorrow never comes
TTITLE2=Fit like a glove
TTITLE3=On of these days
TTITLE4=Cajun moon
TTITLE5=God doesn't know
TTITLE6=I'm amazed what You can do
TTITLE7=I say th egrace
TTITLE8=Closest friend
TTITLE9=Our little boy
TTITLE10=The straight and the narrow
TTITLE11=More than I am
TTITLE12=Eleven
TTITLE13=I need guidance
TTITLE14=Letter to Dad
TTITLE15=Come as you are
EXTD=
EXTT0=
EXTT1=
EXTT2=
EXTT3=
EXTT4=
EXTT5=
EXTT6=
EXTT7=
EXTT8=
EXTT9=
EXTT10=
EXTT11=
EXTT12=
EXTT13=
EXTT14=
EXTT15=
PLAYORDER=
